<?xml version="1.0" encoding="utf-8"?>
<!-- Generator: Adobe Illustrator 22.1.0, SVG Export Plug-In . SVG Version: 6.00 Build 0)  -->
<svg version="1.1" id="Layer_1" xmlns="http://www.w3.org/2000/svg" xmlns:xlink="http://www.w3.org/1999/xlink" x="0px" y="0px"
	 viewBox="0 0 254 298.9" style="enable-background:new 0 0 254 298.9;" xml:space="preserve">
<style type="text/css">
	.st0{fill:#FFFFFF;}
	.st1{fill:#4C251A;}
	.st2{fill:none;}
</style>
<path class="st0" d="M129,269.2c0.3-0.1,0.7-0.1,1-0.2c1.3-0.1,2.7-0.3,4-0.5c5,0.1,10.1-0.4,15.1-1.8c15-4.3,28.6-13,41.7-21.5
	l4-2.5c4.6-2.9,8.8-6.4,12.8-10.3c11.9-6.9,25-16.3,32.2-32.8c3-7,5.6-14.3,7.8-20.9c6.7-20.1,7.9-37.1,3.9-59.2
	c0.3-2.7,0.5-5.3,0.7-8c0.7-8.9-1.7-17.5-3.9-25.7c-0.5-1.9-1.1-3.8-1.5-5.7c-4.6-18.2-26.4-31.7-33-35.5
	c-6.3-3.5-12.7-6.6-19.2-9.1c-9.1-4.7-18.6-8-28.1-10.7c-3.5-1-7.4-1.8-11.6-2.4c-17.1-7-32.4-9.5-46.6-7.3
	c-32.2,4.9-59.8,37.4-77.3,63.8c-9.2,14-16.2,28.5-21.9,45.6l0,0.1c-5,15-5.9,27.1-2.5,40.8c-0.7,6.2-0.8,12.4-0.1,18.4
	c2,18.2,14.3,36.2,27.3,53C53.6,262.6,93.8,276.3,129,269.2 M105.2,28.6c7-2,16.4-3.1,26-3.2c-4.7,1.3-9.4,2.9-13.9,4.4
	c-0.5,0.2-1.1,0.4-1.6,0.5c-9.8,1-19.3,3.3-28.4,6.7c2.2-1.4,4.4-2.7,6.6-3.9c1.2-0.2,2.3-0.2,3.2,0.1l0.8-2
	C100.4,30.2,102.8,29.3,105.2,28.6 M205.6,48.3c-1.3-0.9-2.7-1.8-4.2-2.7c-1.7-1-3.4-2.1-5.2-3.4c-1.1-0.8-2.2-1.5-3.3-2.3
	C197.3,42.3,201.6,45.1,205.6,48.3 M222.2,78.5c-13.8-19.4-33.6-34.8-57.9-42.9c-7.3-2.4-14.6-4-21.9-5c7.7-0.3,15.6,0.2,23.6,1.5
	c13.5,6,24.7,11.4,36,22.2C208.9,61,216.4,69.3,222.2,78.5 M41.8,225.8c2.5,1.7,5.1,3.5,7.7,5.2c4.3,4,8.9,7.6,13.9,10.9
	c-11.4-5.8-19.9-12.1-26.3-19.8C38.4,223.4,40,224.6,41.8,225.8 M126.3,263c-2.8-0.5-5.6-1.1-8.4-1.9c6.1,0.5,12.1,0.6,18.1,0.1
	C132.8,262.1,129.6,262.8,126.3,263 M162.8,256c0.2-0.1,0.5-0.1,0.7-0.2c-1.1,0.5-2.1,1.1-3.2,1.6C161.1,257,161.9,256.5,162.8,256
	 M243,177.1c-2.2,6.6-4.7,13.7-7.6,20.5c-4,9.1-10,15.9-16.6,21.3c4.6-6.4,8.6-13.4,12.1-20.6c1.1-2.2,2.2-4.4,3.1-6.7
	c0.4-0.9,0.8-1.8,1.1-2.8c0.3-0.7,0.6-1.4,0.8-2.1c0.8-2,1.7-4,2.4-6c5.8-12.3,10.2-26.4,10.1-40.6c0.1-0.8,0.3-1.6,0.4-2.3
	C249.5,151.3,247.6,163.5,243,177.1 M242.1,81.2c0.5,1.9,1,3.9,1.6,5.8c2,7.3,3.9,14.3,3.9,21.4l-3.1,0.8c0.9,3.6,1.6,7.1,2.2,10.5
	c-0.2,1.4-0.3,2.8-0.5,4.2c-0.5-1.6-1-3.1-1.6-4.7c-1.2-6.3-3.4-12.3-5.9-18.2c-1.3-12.4-4.8-24.7-11.7-35.8
	c-3.1-5-6.5-9.3-10.1-13.2C228,59.4,239.2,70,242.1,81.2 M108.8,19.6c8.1-1.2,16.6-0.9,25.7,1.1c-11.2-0.1-22.3,1-30.6,3.4
	c-3.9,1.1-7.8,2.7-11.8,4.7C84,30.9,74.5,39.4,68.7,45.1c-0.7,0.7-1.4,1.4-2.1,2.1c-4.9,3-9.6,6.4-14,10.2
	C68.1,39.1,87.5,22.8,108.8,19.6 M14,167.5c1.4,7.4,3.6,14.6,6.4,21.5c-0.8-1.7-1.5-3.5-2.3-5.2l-1-2.3
	C15.7,176.9,14.7,172.2,14,167.5 M37.3,233.7c-12.6-16.2-24.4-33.6-26.4-50.6c-0.2-1.6-0.3-3.3-0.4-4.9c0.6,1.6,1.3,3.1,2,4.8l0,0.1
	c2.9,9.5,6.9,18.5,11.1,27.1c8.4,17.2,21.4,28.8,43.4,38.8l3.1,1.4c7.5,3.5,16.8,7.8,25.8,9.7c2.5,1.3,5,2.4,7.4,3.4
	c2.8,1.2,5.6,2.1,8.3,2.8C82.8,266.9,53.3,254.4,37.3,233.7"/>
<path class="st1" d="M79.3,139.4c0-0.1,0.1-0.2,0.2-0.4c0.1-0.1,0.3-0.4,0.6-0.9c0.3-0.4,0.6-0.9,1-1.3c0.3-0.4,0.8-0.8,1.4-1.3
	c0.6-0.5,1.2-0.9,1.9-1.2c0.7-0.3,1.5-0.6,2.4-0.9c0.9-0.2,1.9-0.4,3-0.4c1,0,1.9,0.1,2.8,0.4s1.7,0.6,2.5,1.2
	c0.8,0.5,1.4,1.3,1.9,2.2c0.5,1,0.7,2.1,0.7,3.4c0,2.4-0.7,4.7-2.1,6.9c-1.4,2.2-3.7,4.5-6.9,7.1h9.3l-1.1,5.9H80.2l-0.8-3.3
	c1.3-1.1,2.7-2.3,3.9-3.6c1.3-1.3,2.5-2.6,3.7-4c1.2-1.4,2.2-2.8,2.9-4.2c0.7-1.4,1.1-2.6,1.1-3.5c0-1.5-0.8-2.3-2.4-2.3
	c-0.6,0-1.1,0.1-1.6,0.4c-0.5,0.2-1,0.5-1.3,0.9c-0.3,0.3-0.7,0.7-0.9,1.1s-0.5,0.7-0.6,0.9l-0.2,0.4L79.3,139.4z"/>
<path class="st1" d="M123.4,148.9c0-1.7,0.1-3.3,0.4-4.8s0.8-3,1.4-4.3s1.4-2.5,2.3-3.5c0.9-1,2-1.8,3.3-2.3s2.7-0.9,4.3-0.9
	c1.4,0,2.7,0.2,3.8,0.7s2,1,2.7,1.8s1.2,1.6,1.7,2.6c0.4,1,0.7,2.1,0.9,3.1c0.2,1,0.2,2.1,0.2,3.3c0,1.5-0.2,3.1-0.5,4.6
	s-0.8,2.9-1.4,4.3c-0.6,1.4-1.4,2.6-2.3,3.6c-0.9,1-2,1.9-3.3,2.5c-1.3,0.6-2.8,0.9-4.3,0.9c-2.9,0-5.1-1-6.7-3
	C124.2,155.5,123.4,152.6,123.4,148.9z M129.8,149c0,1.9,0.2,3.3,0.7,4.1s1.2,1.3,2.2,1.3c1.1,0,2-0.5,2.8-1.4
	c0.8-0.9,1.4-2.1,1.8-3.5c0.4-1.4,0.6-3,0.6-4.8c0-1.6-0.3-3-0.8-4s-1.2-1.5-2.1-1.5c-0.9,0-1.8,0.3-2.5,0.9
	c-0.7,0.6-1.3,1.3-1.7,2.3c-0.4,1-0.7,2-0.9,3.1C129.9,146.6,129.8,147.8,129.8,149z"/>
<path class="st1" d="M146,148.9c0-1.7,0.1-3.3,0.4-4.8s0.8-3,1.4-4.3s1.4-2.5,2.3-3.5c0.9-1,2-1.8,3.3-2.3s2.7-0.9,4.3-0.9
	c1.4,0,2.7,0.2,3.8,0.7s2,1,2.7,1.8s1.2,1.6,1.7,2.6c0.4,1,0.7,2.1,0.9,3.1c0.2,1,0.2,2.1,0.2,3.3c0,1.5-0.2,3.1-0.5,4.6
	s-0.8,2.9-1.4,4.3c-0.6,1.4-1.4,2.6-2.3,3.6c-0.9,1-2,1.9-3.3,2.5c-1.3,0.6-2.8,0.9-4.3,0.9c-2.9,0-5.1-1-6.7-3
	C146.8,155.5,146,152.6,146,148.9z M152.4,149c0,1.9,0.2,3.3,0.7,4.1s1.2,1.3,2.2,1.3c1.1,0,2-0.5,2.8-1.4c0.8-0.9,1.4-2.1,1.8-3.5
	c0.4-1.4,0.6-3,0.6-4.8c0-1.6-0.3-3-0.8-4s-1.2-1.5-2.1-1.5c-0.9,0-1.8,0.3-2.5,0.9c-0.7,0.6-1.3,1.3-1.7,2.3c-0.4,1-0.7,2-0.9,3.1
	C152.5,146.6,152.4,147.8,152.4,149z"/>
<g>
	<path class="st1" d="M53.2,152.6c0-0.8,0.1-1.6,0.3-2.4c0.2-0.8,0.5-1.5,0.9-2.1c0.4-0.6,0.9-1.1,1.6-1.5c0.6-0.4,1.4-0.6,2.1-0.6
		c0.6,0,1.1,0.1,1.5,0.3c0.4,0.2,0.7,0.4,0.9,0.8c0.2,0.3,0.4,0.7,0.5,1.1c0.1,0.4,0.2,0.9,0.2,1.4c0,0.6-0.1,1.1-0.2,1.7
		s-0.3,1.1-0.6,1.7c-0.3,0.5-0.6,1-1,1.4s-0.8,0.7-1.4,1s-1.1,0.4-1.7,0.4c-1,0-1.7-0.3-2.2-0.9C53.5,154.3,53.2,153.6,53.2,152.6z
		 M55.1,152.2c0,0.6,0.1,1.1,0.4,1.4c0.3,0.3,0.6,0.5,1.1,0.5c0.4,0,0.9-0.2,1.3-0.6s0.8-0.9,1.1-1.6s0.4-1.4,0.4-2.2
		c0-0.6-0.1-1.1-0.4-1.5c-0.3-0.4-0.6-0.5-1.1-0.5c-0.5,0-1,0.2-1.4,0.7c-0.4,0.5-0.8,1.1-1,1.8C55.2,150.9,55.1,151.5,55.1,152.2z"
		/>
	<path class="st1" d="M61.7,148l0.1-1.5c1.4,0,2.7,0,3.8,0c0.6,0,1.3,0,2.2,0c0.9,0,1.6,0,2,0l-0.2,1.5h-3.1l-0.2,7.6l-1.8,0
		l0.2-7.6L61.7,148L61.7,148z"/>
</g>
<g>
	<path class="st1" d="M175.9,159.3c0-0.1,0-0.5,0.1-1.3c0.1-0.8,0.1-1.4,0.1-1.8c0-0.5,0.1-1.1,0.1-1.8c0.1-0.7,0.1-1.4,0.1-2.1
		s0-1.3,0-1.8c0-2.5-0.1-4.7-0.3-6.5l1.8-0.2c0.1,0.9,0.2,1.9,0.2,2.9c0,0.3,0,0.6,0,0.7h0.1c0.4-1.1,1-2,1.7-2.7s1.4-1.1,2.1-1.1
		c0.5,0,0.9,0.2,1.2,0.5s0.6,0.8,0.7,1.2s0.2,1,0.2,1.6c0,0.9-0.1,1.8-0.4,2.6c-0.3,0.8-0.6,1.5-1,2c-0.4,0.5-0.9,1-1.4,1.3
		c-0.5,0.3-1.1,0.5-1.6,0.5c-0.2,0-0.5-0.1-0.7-0.4s-0.4-0.6-0.5-0.9l-0.2-0.4c-0.3,4.3-0.5,6.9-0.6,7.8L175.9,159.3L175.9,159.3z
		 M178.1,150.9c0.5,0.5,1,0.8,1.6,0.8s1.1-0.3,1.5-0.8c0.4-0.4,0.7-0.9,0.9-1.6c0.2-0.7,0.4-1.4,0.4-2.1c0-1.2-0.3-1.8-0.8-1.8
		c-0.3,0-0.7,0.2-1.1,0.7c-0.4,0.5-0.8,1-1.1,1.6s-0.6,1.2-0.9,1.8C178.3,150.1,178.2,150.6,178.1,150.9z"/>
	<path class="st1" d="M184.9,144.4l1.8-0.6l2.4,6.9c1-2.4,1.7-4.7,2.2-7l1.8,0.3c-0.6,2.4-1.4,5-2.6,7.7c-0.8,1.9-2.1,4.2-3.8,6.9
		l-1.6-1c1.2-1.7,2.2-3.3,3-4.8L184.9,144.4z"/>
	<path class="st1" d="M193.7,149c0-0.8,0.1-1.7,0.2-2.5s0.3-1.7,0.5-2.6s0.5-1.6,0.9-2.3s0.9-1.1,1.4-1.4c0.4-0.2,0.9-0.4,1.6-0.7
		s1.2-0.5,1.4-0.7c0.3-0.2,0.6-0.5,0.8-0.7s0.4-0.5,0.6-0.7l0.7,1.5c-0.1,0.2-0.2,0.4-0.3,0.6c-0.1,0.2-0.4,0.4-0.7,0.6
		c-0.2,0.2-0.7,0.4-1.5,0.7s-1.3,0.6-1.6,0.8c-1.3,0.8-2.1,3-2.4,6.7h0.1c0-0.1,0.1-0.1,0.1-0.2c0-0.1,0.1-0.3,0.3-0.6
		s0.3-0.6,0.5-0.9s0.4-0.6,0.6-0.9c0.3-0.3,0.5-0.6,0.8-0.9s0.6-0.4,1-0.6s0.8-0.2,1.2-0.2c0.6,0,1,0.3,1.3,0.8s0.5,1.2,0.5,2
		c0,1.2-0.2,2.3-0.6,3.2c-0.4,1-0.9,1.8-1.7,2.4s-1.5,0.9-2.4,0.9c-0.5,0-1-0.1-1.4-0.3s-0.7-0.4-1-0.7s-0.4-0.6-0.6-1
		s-0.2-0.8-0.3-1.1C193.8,149.7,193.7,149.3,193.7,149z M195.7,150.7c0.1,0.3,0.3,0.5,0.5,0.7c0.2,0.2,0.6,0.2,0.9,0.2
		c0.4,0,0.8-0.2,1.2-0.7c0.4-0.4,0.8-1,1.1-1.8s0.4-1.5,0.4-2.3c0-0.4-0.1-0.7-0.2-1s-0.3-0.4-0.5-0.4c-0.3,0-0.7,0.3-1.2,0.9
		s-0.9,1.3-1.3,2C196.3,149.3,196,150,195.7,150.7z"/>
	<path class="st1" d="M203,152.8c0-0.4,0.2-0.8,0.6-1.2s0.8-0.6,1.2-0.6c0.2,0,0.3,0.1,0.5,0.2s0.2,0.3,0.2,0.5
		c0,0.4-0.2,0.8-0.5,1.1s-0.7,0.5-1.1,0.5c-0.2,0-0.4-0.1-0.5-0.2S203,152.9,203,152.8z"/>
</g>
<g>
	<path class="st1" d="M75.1,123.4l0.3-7.4c0.8-0.1,1.6-0.4,2.2-0.9c0.6-0.5,1.1-1.2,1.5-2.1c0.7-1.6,1.4-3.5,2-5.7s1.1-4,1.4-5.3
		c0.3-1.3,0.4-2.1,0.4-2.4c1.8,0,3.3,0,4.6,0c2.7,0,4.1-0.1,4.2-0.1l-0.1,15.9h3.2l-0.6,7.8h-4.2l0.2-4H79.6l-0.3,4.1L75.1,123.4
		L75.1,123.4z M82.5,115.5h4.6c0.1-2,0.1-4.3,0.2-7.1c0.1-2.8,0.1-4.3,0.1-4.7h-1.2c-0.8,3.9-1.7,7-2.5,9.4
		C83.5,114.1,83.1,114.8,82.5,115.5z"/>
	<path class="st1" d="M96.1,114.9c0-0.8,0.1-1.6,0.3-2.4c0.2-0.8,0.5-1.6,0.9-2.3c0.4-0.7,0.8-1.4,1.4-1.9s1.2-1,1.9-1.3
		s1.6-0.5,2.4-0.5c0.9,0,1.6,0.1,2.2,0.4c0.6,0.3,1.1,0.6,1.5,1.1c0.4,0.5,0.6,1,0.8,1.6s0.2,1.2,0.2,2c0,0.9-0.1,1.9-0.4,2.8
		c-0.3,0.9-0.7,1.8-1.3,2.6c-0.5,0.8-1.3,1.4-2.1,1.9c-0.9,0.5-1.9,0.7-3,0.7c-1.5,0-2.7-0.4-3.6-1.3
		C96.5,117.4,96.1,116.3,96.1,114.9z M100.2,114.7c0,0.8,0.3,1.2,1,1.2c0.6,0,1.2-0.5,1.7-1.5c0.5-1,0.8-2.1,0.8-3.2
		c0-0.3-0.1-0.6-0.2-0.8c-0.2-0.2-0.4-0.3-0.7-0.3c-0.4,0-0.9,0.2-1.3,0.7c-0.4,0.5-0.7,1.1-1,1.8
		C100.3,113.4,100.2,114.1,100.2,114.7z"/>
	<path class="st1" d="M109.3,114.4c0-1.1,0.1-2.1,0.4-3c0.3-0.9,0.7-1.7,1.2-2.3c0.5-0.6,1-1.2,1.6-1.6c0.6-0.5,1.2-0.8,1.8-1
		c0.6-0.2,1.2-0.3,1.7-0.3c1,0,1.8,0.1,2.4,0.4c0.7,0.3,1.3,0.6,2,1l-2.1,3.6c-0.5-0.4-0.8-0.6-1.2-0.8c-0.3-0.1-0.7-0.2-1-0.2
		c-0.7,0-1.3,0.4-1.8,1.1c-0.5,0.7-0.7,1.5-0.7,2.4c0,1.3,0.6,2,1.7,2c0.7,0,1.7-0.3,2.9-1l1.1,3.4c-0.5,0.3-1.1,0.6-2.1,1
		s-1.8,0.5-2.8,0.5c-0.7,0-1.3-0.1-1.9-0.3s-1.1-0.5-1.6-0.9s-0.9-0.9-1.2-1.6S109.3,115.3,109.3,114.4z"/>
	<path class="st1" d="M121.4,110.5l0.2-3.9c1.6,0,3.5,0,5.6,0c0.5,0,1.5,0,2.7,0c1.3,0,2.4,0,3.3,0l-0.5,3.9h-3.6l-0.3,9h-4.2
		c0.1-1.5,0.2-4.4,0.4-9L121.4,110.5L121.4,110.5z"/>
	<path class="st1" d="M133.7,115.5c0-1.3,0.4-2.3,1.2-3.1c0.8-0.8,1.9-1.1,3.2-1.1c0.8,0,1.5,0.1,2.1,0.3c0-0.4-0.1-0.7-0.2-1
		c-0.2-0.5-0.8-0.8-1.7-0.8c-0.8,0-1.7,0.2-2.7,0.7l-1-3.5c0.3-0.2,0.9-0.4,1.7-0.6s1.6-0.3,2.2-0.3c0.5,0,0.9,0,1.3,0.1
		s0.7,0.1,1.1,0.2c0.4,0.1,0.7,0.3,1,0.5s0.6,0.5,0.9,0.9c0.3,0.4,0.6,0.8,0.8,1.4c0.5,1,0.7,3.1,0.7,6.1c0,1.6-0.1,3-0.1,4.2
		l-3.4-0.1c0.1-0.8,0.1-1.7,0.2-2.9c-0.4,1-0.9,1.7-1.5,2.2c-0.7,0.5-1.4,0.7-2.1,0.7c-1.1,0-1.9-0.4-2.7-1.1
		S133.7,116.7,133.7,115.5z M137.8,115c0,0.2,0.1,0.4,0.2,0.5c0.2,0.1,0.4,0.2,0.7,0.2c0.7,0,1.2-0.4,1.7-1.3
		c-0.5-0.2-1-0.3-1.5-0.3c-0.3,0-0.6,0.1-0.8,0.2C137.9,114.5,137.8,114.7,137.8,115z"/>
	<path class="st1" d="M146.6,106.8c1.6-0.2,3.2-0.3,4.7-0.3c2,0,3.4,0.3,4.2,0.8c0.8,0.5,1.2,1.4,1.2,2.6c0,0.8-0.2,1.6-0.6,2.2
		s-1,1.1-1.8,1.5v0.1c1.1,0.4,1.7,1.2,1.7,2.3c0,1-0.5,1.9-1.4,2.6c-1,0.7-2.3,1.1-4,1.1c-1.2,0-2.3-0.1-3.1-0.3L146.6,106.8z
		 M150.6,109.6l0.1,2.2h0.8c0.4,0,0.7-0.1,0.8-0.3c0.2-0.2,0.3-0.5,0.3-0.9c0-0.3-0.1-0.5-0.2-0.7c-0.2-0.2-0.4-0.3-0.7-0.3H150.6z
		 M150.7,114.2l0,2.1h0.7c0.3,0,0.5-0.1,0.7-0.3c0.2-0.2,0.3-0.5,0.3-0.9c0-0.6-0.3-1-0.9-1L150.7,114.2z"/>
	<path class="st1" d="M157.9,119.4l0.4-12.9l4.1,0.1l-0.1,2.8l4.4-3.3l2.5,2.9l-3.4,2.3l4.5,6l-3.3,2.5l-4.2-6.6l-0.6,0.4l-0.2,6
		L157.9,119.4z"/>
	<path class="st1" d="M170.8,115.5c0-1.3,0.4-2.3,1.2-3.1c0.8-0.8,1.9-1.1,3.2-1.1c0.8,0,1.5,0.1,2.1,0.3c0-0.4-0.1-0.7-0.2-1
		c-0.2-0.5-0.8-0.8-1.7-0.8c-0.8,0-1.7,0.2-2.7,0.7l-1-3.5c0.3-0.2,0.9-0.4,1.7-0.6s1.6-0.3,2.2-0.3c0.5,0,0.9,0,1.3,0.1
		s0.7,0.1,1.1,0.2c0.4,0.1,0.7,0.3,1,0.5s0.6,0.5,0.9,0.9c0.3,0.4,0.6,0.8,0.8,1.4c0.5,1,0.7,3.1,0.7,6.1c0,1.6-0.1,3-0.1,4.2
		l-3.4-0.1c0.1-0.8,0.1-1.7,0.2-2.9c-0.4,1-0.9,1.7-1.5,2.2c-0.7,0.5-1.4,0.7-2.1,0.7c-1.1,0-1.9-0.4-2.7-1.1
		S170.8,116.7,170.8,115.5z M174.9,115c0,0.2,0.1,0.4,0.2,0.5c0.2,0.1,0.4,0.2,0.7,0.2c0.7,0,1.2-0.4,1.7-1.3
		c-0.5-0.2-1-0.3-1.5-0.3c-0.3,0-0.6,0.1-0.8,0.2C175,114.5,174.9,114.7,174.9,115z"/>
</g>
<g>
	<path class="st1" d="M67.5,183.6c0-1.3,0.1-2.5,0.2-3.7c0.2-1.2,0.4-2.3,0.7-3.4c0.3-1.1,0.7-2,1.2-2.9s1.1-1.5,1.8-1.9
		c0.4-0.3,1.1-0.7,2.2-1.2c1.1-0.5,1.8-0.9,2-1c0.5-0.3,1-0.6,1.4-1s0.7-0.7,1-1l1.4,3.1c-0.4,0.9-1.2,1.7-2.4,2.4l-3.2,1.7
		c-1.7,0.9-2.8,3.1-3.2,6.7l0.1,0.1c0.5-1.3,1.3-2.4,2.2-3.2c0.9-0.8,1.9-1.3,2.7-1.3c1,0,1.7,0.4,2.3,1.2c0.5,0.8,0.8,2,0.8,3.5
		c0,0.8-0.1,1.5-0.2,2.3c-0.2,0.8-0.4,1.5-0.8,2.2s-0.8,1.4-1.3,1.9c-0.5,0.6-1.1,1-1.9,1.4c-0.7,0.3-1.5,0.5-2.4,0.5
		c-0.7,0-1.3-0.1-1.8-0.4c-0.5-0.2-1-0.5-1.3-0.9c-0.3-0.4-0.6-0.9-0.9-1.4c-0.2-0.5-0.4-1.1-0.5-1.7S67.5,184.3,67.5,183.6z
		 M71.4,185.1c0.1,0.2,0.2,0.4,0.4,0.6c0.2,0.2,0.5,0.3,0.8,0.3c0.5,0,0.9-0.4,1.4-1.1s0.7-1.6,0.7-2.7c0-0.3-0.1-0.6-0.2-0.8
		c-0.1-0.2-0.2-0.3-0.4-0.3c-0.4,0-0.7,0.2-1.1,0.7s-0.7,1-1,1.6S71.5,184.6,71.4,185.1z"/>
	<path class="st1" d="M80.2,184.8c0-0.9,0.1-1.7,0.3-2.5s0.5-1.6,1-2.3s0.9-1.3,1.5-1.9s1.3-1,2-1.3s1.6-0.5,2.4-0.5
		c1.2,0,2.2,0.3,2.9,0.9s1,1.5,1,2.7c0,1.2-0.3,2.4-0.8,3.6l-6.1,0.9c0,0.5,0.1,0.8,0.2,1.1c0.1,0.4,0.5,0.5,1.1,0.5
		c0.9,0,2-0.3,3.3-0.8l1.3,3.1c-0.3,0.2-1,0.5-2.1,0.9s-2,0.5-2.9,0.5c-0.5,0-1-0.1-1.5-0.2s-0.9-0.3-1.4-0.5s-0.8-0.6-1.1-0.9
		c-0.3-0.4-0.6-0.8-0.8-1.4S80.2,185.6,80.2,184.8z M84.9,181.3l2.6-0.5c0.1-0.2,0.2-0.4,0.2-0.7c0-0.2,0-0.3-0.1-0.4
		s-0.2-0.1-0.4-0.1C86.2,179.5,85.5,180.1,84.9,181.3z"/>
	<path class="st1" d="M92.6,184.7c0-1.1,0.1-2.1,0.4-3c0.3-0.9,0.7-1.7,1.2-2.3s1-1.2,1.6-1.6s1.2-0.8,1.8-1s1.2-0.3,1.7-0.3
		c1,0,1.8,0.1,2.4,0.4s1.3,0.6,2,1l-2.1,3.6c-0.5-0.4-0.8-0.6-1.2-0.8c-0.3-0.1-0.7-0.2-1-0.2c-0.7,0-1.3,0.4-1.8,1.1
		c-0.5,0.7-0.7,1.5-0.7,2.4c0,1.3,0.6,2,1.7,2c0.7,0,1.7-0.3,2.9-1l1.1,3.4c-0.5,0.3-1.1,0.6-2.1,1s-1.8,0.5-2.8,0.5
		c-0.7,0-1.3-0.1-1.9-0.3c-0.6-0.2-1.1-0.5-1.6-0.9c-0.5-0.4-0.9-0.9-1.2-1.6C92.8,186.4,92.6,185.6,92.6,184.7z"/>
	<path class="st1" d="M104.7,189.8l0.6-12.9h10.9l0.5,12.8h-4.2l-0.4-9.1h-2.7l-0.4,9.1L104.7,189.8L104.7,189.8z"/>
	<path class="st1" d="M118,186.4c1-0.2,1.6-0.4,2.1-0.7s0.8-0.7,1.1-1.3c0.3-0.7,0.6-1.5,0.8-2.6s0.3-2.7,0.5-4.9l7.7,0l0.3,12.6
		l-4.2,0.2l0.3-9.3h-0.9c0,0.1,0,0.4-0.1,1s-0.1,0.9-0.1,1.1s-0.1,0.5-0.1,1s-0.1,0.8-0.2,1.1s-0.1,0.6-0.2,0.9s-0.2,0.7-0.3,1
		s-0.2,0.6-0.4,0.8c-0.5,0.9-1.1,1.6-1.8,2s-1.5,0.7-2.4,0.7c-0.7,0-1.2,0-1.4-0.1L118,186.4z"/>
	<path class="st1" d="M132.7,185.8c0-1.3,0.4-2.3,1.2-3.1c0.8-0.8,1.9-1.1,3.2-1.1c0.8,0,1.5,0.1,2.1,0.3c0-0.4-0.1-0.7-0.2-1
		c-0.2-0.5-0.8-0.8-1.7-0.8c-0.8,0-1.7,0.2-2.7,0.7l-1-3.5c0.3-0.2,0.9-0.4,1.7-0.6s1.6-0.3,2.2-0.3c0.5,0,0.9,0,1.3,0.1
		c0.4,0,0.7,0.1,1.1,0.2s0.7,0.3,1,0.5c0.3,0.2,0.6,0.5,0.9,0.9s0.6,0.8,0.8,1.4c0.5,1,0.7,3.1,0.7,6.1c0,1.6-0.1,3-0.1,4.2
		l-3.4-0.1c0.1-0.8,0.1-1.7,0.2-2.9c-0.4,1-0.9,1.7-1.5,2.2c-0.7,0.5-1.4,0.7-2.1,0.7c-1.1,0-1.9-0.4-2.7-1.1
		C133,188,132.7,187,132.7,185.8z M136.7,185.3c0,0.2,0.1,0.4,0.2,0.5s0.4,0.2,0.7,0.2c0.7,0,1.2-0.4,1.7-1.3
		c-0.5-0.2-1-0.3-1.5-0.3c-0.3,0-0.6,0.1-0.8,0.2S136.7,185,136.7,185.3z"/>
	<path class="st1" d="M144.4,180.8l0.2-3.9c1.6,0,3.5,0,5.6,0c0.5,0,1.5,0,2.7,0s2.4,0,3.3,0l-0.5,3.9h-3.6l-0.3,9h-4.2
		c0.1-1.5,0.2-4.4,0.4-9L144.4,180.8L144.4,180.8z"/>
	<path class="st1" d="M157.6,189.7v-12.8h4.2l-0.1,3.7h3.6l0.3-3.6l4.2,0l-0.8,12.7l-4.2,0.1l0.4-5.3h-3.3l-0.1,5.3L157.6,189.7z"/>
	<path class="st1" d="M171.5,185.2c0-0.8,0.1-1.6,0.3-2.4c0.2-0.8,0.5-1.6,0.9-2.3c0.4-0.7,0.8-1.4,1.4-1.9c0.5-0.6,1.2-1,1.9-1.3
		s1.6-0.5,2.4-0.5c0.9,0,1.6,0.1,2.2,0.4c0.6,0.3,1.1,0.6,1.5,1.1c0.4,0.5,0.6,1,0.8,1.6c0.2,0.6,0.2,1.2,0.2,2
		c0,0.9-0.1,1.9-0.4,2.8c-0.3,0.9-0.7,1.8-1.3,2.6c-0.5,0.8-1.3,1.4-2.1,1.9c-0.9,0.5-1.9,0.7-3,0.7c-1.5,0-2.7-0.4-3.6-1.3
		S171.5,186.6,171.5,185.2z M175.6,185c0,0.8,0.3,1.2,1,1.2c0.6,0,1.2-0.5,1.7-1.5c0.5-1,0.8-2.1,0.8-3.2c0-0.3-0.1-0.6-0.2-0.8
		s-0.4-0.3-0.7-0.3c-0.4,0-0.9,0.2-1.3,0.7s-0.7,1.1-1,1.8C175.7,183.7,175.6,184.4,175.6,185z"/>
	<path class="st1" d="M185.4,188.8c0-0.6,0.3-1.2,1-1.8s1.3-0.9,2-0.9c0.4,0,0.7,0.2,0.9,0.5c0.3,0.3,0.4,0.7,0.4,1.2
		c0,0.6-0.3,1.2-0.9,1.8c-0.6,0.6-1.2,0.9-1.8,0.9c-0.5,0-0.9-0.2-1.2-0.5S185.4,189.2,185.4,188.8z M185.6,168.1h4.2l-0.2,15.3
		l-3.9,0.1L185.6,168.1z"/>
</g>
<g>
	<circle class="st2" cx="129.3" cy="146.4" r="84.1"/>
	<path class="st1" d="M34,105.4l1.5-4.1c3.4,1.4,5.7,2.1,6.8,2.3c1.1,0.2,1.9-0.1,2.3-1c0.2-0.3,0.2-0.7,0.2-1.1
		c0-0.4-0.1-0.9-0.3-1.3s-0.4-0.9-0.8-1.4c-0.3-0.5-0.7-0.9-1-1.4c-0.3-0.4-0.7-0.8-1.2-1.3s-0.8-0.8-1.1-1.1
		c-0.3-0.3-0.6-0.6-0.9-0.9l1.9-3.1l16.8,10.1l-1.9,3.9l-8.3-5.1l-0.1,0.1c0.5,0.8,0.7,1.7,0.7,2.7s-0.2,1.9-0.6,2.7
		c-0.2,0.4-0.5,0.8-0.8,1.1s-0.7,0.6-1.1,0.9c-0.4,0.3-1,0.5-1.6,0.6c-0.6,0.1-1.3,0.1-2,0c-1-0.1-2.1-0.4-3.3-0.8
		C38,107.1,36.3,106.4,34,105.4z"/>
	<path class="st1" d="M55.8,96.2c-0.7-0.5-1.3-1.1-1.8-1.8c-0.5-0.7-0.9-1.4-1.2-2.2c-0.3-0.8-0.5-1.6-0.6-2.3
		c-0.1-0.8,0-1.6,0.2-2.4c0.2-0.8,0.6-1.5,1.1-2.2c0.8-1,1.6-1.5,2.5-1.7c0.9-0.2,1.8,0.1,2.7,0.8c0.9,0.7,1.7,1.7,2.3,2.9l-3,5.4
		c0.4,0.3,0.7,0.5,0.9,0.5c0.4,0.1,0.7-0.1,1.1-0.6c0.6-0.7,1-1.8,1.4-3.1l3.2,0.9c0,0.4-0.2,1.2-0.6,2.2c-0.4,1-0.8,1.9-1.4,2.6
		c-0.3,0.4-0.7,0.8-1,1.1c-0.4,0.3-0.8,0.6-1.3,0.8c-0.5,0.2-0.9,0.3-1.4,0.3c-0.5,0-1-0.1-1.6-0.3C56.9,97,56.4,96.7,55.8,96.2z
		 M55.8,90.4L57,88c-0.1-0.2-0.2-0.4-0.5-0.6c-0.1-0.1-0.3-0.1-0.4-0.1c-0.1,0-0.3,0.1-0.4,0.3C55.2,88.2,55.2,89.2,55.8,90.4z"/>
	<path class="st1" d="M65.9,90.4L59.7,79l2.8-2.5l2.8,1.2c0.3,0.1,0.6,0.3,1,0.5s0.8,0.4,1.1,0.6l0.4,0.2l0.1-0.1
		c-0.4-1.3-0.7-2.3-0.9-3l-0.9-2.9l2.8-2.5l9.6,8.6l-2.8,3l-3.6-3.5c-0.3-0.3-0.7-0.7-1-1.1s-0.7-0.8-0.9-1.1l-0.4-0.5L69.6,76
		c0.5,1.4,0.9,2.5,1.2,3.3l0.7,2.2L69.8,83L68,82.3c-0.3-0.1-0.7-0.3-1.3-0.6c-0.6-0.3-1.1-0.5-1.5-0.7l-0.6-0.3l-0.1,0.1
		c1.3,1.8,2.1,2.9,2.5,3.5l2.3,3.8L65.9,90.4z"/>
	<path class="st1" d="M80.8,70.4c-0.6-1.1-1.2-2.2-1.6-3.3c-0.5-1.1-0.8-2.2-1.1-3.3s-0.4-2.1-0.4-3.1c0-1,0.2-1.8,0.6-2.5
		c0.2-0.4,0.7-1.1,1.4-2.1c0.7-1,1.1-1.6,1.2-1.9c0.3-0.5,0.5-1,0.7-1.5c0.2-0.5,0.3-1,0.3-1.4l2.8,2c0.1,1-0.2,2.1-0.9,3.2l-2,3.1
		c-1,1.6-0.9,4.1,0.5,7.4l0.1,0c-0.2-1.4-0.1-2.7,0.3-3.9s1-2,1.8-2.4c0.9-0.5,1.7-0.5,2.6-0.1c0.9,0.4,1.7,1.3,2.4,2.6
		c0.4,0.7,0.7,1.4,0.9,2.1c0.2,0.7,0.4,1.5,0.4,2.3c0,0.8,0,1.6-0.2,2.3c-0.2,0.7-0.5,1.4-1,2.1c-0.5,0.7-1.1,1.2-1.8,1.6
		c-0.6,0.3-1.2,0.5-1.8,0.6c-0.6,0.1-1.1,0-1.6-0.2c-0.5-0.2-1-0.4-1.4-0.8s-0.9-0.8-1.3-1.2C81.5,71.5,81.1,71,80.8,70.4z
		 M84.9,69.8c0.2,0.2,0.4,0.3,0.7,0.4c0.3,0.1,0.6,0,0.8-0.1c0.4-0.2,0.6-0.8,0.7-1.7c0.1-0.9-0.2-1.8-0.7-2.7
		c-0.2-0.3-0.3-0.5-0.5-0.6c-0.2-0.1-0.4-0.1-0.5,0c-0.3,0.2-0.5,0.6-0.6,1.2c-0.1,0.6-0.1,1.2-0.1,1.8
		C84.7,68.7,84.8,69.3,84.9,69.8z"/>
	<path class="st1" d="M92.8,65.6c-0.3-0.7-0.5-1.5-0.6-2.3c-0.1-0.8-0.1-1.6,0-2.4c0.1-0.8,0.3-1.6,0.6-2.3c0.3-0.7,0.8-1.4,1.3-1.9
		c0.6-0.6,1.3-1,2.1-1.3c0.8-0.3,1.6-0.4,2.2-0.4c0.7,0,1.3,0.2,1.8,0.5c0.5,0.3,0.9,0.7,1.3,1.2c0.4,0.5,0.7,1.1,0.9,1.8
		c0.3,0.9,0.5,1.8,0.6,2.8s0,1.9-0.3,2.9c-0.2,0.9-0.7,1.8-1.3,2.6c-0.7,0.8-1.5,1.3-2.5,1.7c-1.4,0.5-2.7,0.5-3.8,0
		S93.3,66.9,92.8,65.6z M96.5,64c0.3,0.7,0.7,1,1.4,0.7c0.6-0.2,0.9-0.9,1.1-2c0.2-1.1,0-2.2-0.4-3.3c-0.1-0.3-0.3-0.5-0.5-0.6
		c-0.2-0.1-0.5-0.1-0.7,0c-0.4,0.2-0.7,0.5-0.9,1.1c-0.2,0.6-0.3,1.3-0.3,2C96.2,62.7,96.3,63.4,96.5,64z"/>
	<path class="st1" d="M104.2,62.6c0.9-0.4,1.5-0.8,1.9-1.1c0.4-0.3,0.6-0.8,0.8-1.5c0.2-0.7,0.3-1.6,0.2-2.7
		c-0.1-1.1-0.2-2.7-0.5-4.9l7.5-1.7l3,12.2l-4.1,1.1l-1.7-9.2l-0.9,0.2c0,0.1,0.1,0.4,0.1,1c0.1,0.5,0.1,0.9,0.1,1.1
		c0,0.2,0,0.5,0.1,1c0,0.5,0.1,0.8,0,1.1c0,0.3,0,0.6,0,1c0,0.4,0,0.7-0.1,1c-0.1,0.3-0.1,0.6-0.2,0.9c-0.3,1-0.7,1.7-1.3,2.4
		c-0.6,0.6-1.3,1-2.2,1.2c-0.7,0.1-1.1,0.2-1.4,0.2L104.2,62.6z"/>
	<path class="st1" d="M118.9,63c-0.2-3.5-0.4-7.8-0.6-12.9l4.2-0.3l0.1,3.8c0.3-0.3,0.8-0.5,1.3-0.8s1.1-0.3,1.6-0.4
		c1-0.1,1.7,0.2,2.3,0.7c0.6,0.5,0.9,1.3,1,2.4c0.2,2.6-1,4.6-3.4,6.1c-1.2,0.7-2.9,1.1-5.2,1.3c-0.1,0-0.3,0-0.7,0.1
		C119.3,62.9,119,63,118.9,63z M122.8,59.2c0.1,0,0.2,0,0.4-0.1c0.2-0.1,0.3-0.1,0.4-0.2c0.3-0.2,0.6-0.5,0.9-0.8s0.4-0.7,0.3-1.1
		c0-0.3-0.1-0.4-0.3-0.6c-0.2-0.1-0.3-0.2-0.5-0.2c-0.6,0-1,0.2-1.4,0.6L122.8,59.2z"/>
	<path class="st1" d="M131.5,49.2l4.2,0.5l-1,9l2.4,0.3l1.3-8.9l4.2,0.5l-1.5,8.8l2.4,0.3l1.7-8.8l4.3,0.5l-2.4,12.7l-9.6-1.1
		c-1-0.1-2.3-0.3-3.9-0.4c-1.6-0.2-2.8-0.3-3.6-0.4L131.5,49.2z"/>
	<path class="st1" d="M150.5,60c0.3-0.8,0.6-1.6,1.1-2.3c0.5-0.7,1-1.4,1.6-1.9c0.6-0.5,1.3-1,2-1.3c0.7-0.3,1.5-0.6,2.3-0.6
		c0.8-0.1,1.7,0,2.5,0.3c1.2,0.4,2,0.9,2.5,1.7c0.5,0.8,0.5,1.7,0.2,2.8c-0.3,1.1-1,2.2-1.9,3.2l-6.1-0.9c-0.1,0.5-0.2,0.8-0.2,1.1
		c0,0.4,0.3,0.7,0.9,0.8c0.9,0.3,2,0.3,3.4,0.2l0.3,3.4c-0.4,0.1-1.1,0.2-2.2,0.2s-2.1-0.1-2.9-0.4c-0.5-0.2-1-0.3-1.4-0.6
		s-0.8-0.5-1.2-0.9c-0.4-0.4-0.6-0.8-0.8-1.2c-0.2-0.5-0.3-1-0.3-1.6C150.2,61.3,150.3,60.7,150.5,60z M156,57.9l2.6,0.3
		c0.2-0.2,0.3-0.4,0.4-0.6c0-0.1,0-0.3,0-0.4c-0.1-0.1-0.2-0.2-0.4-0.3C157.8,56.6,156.9,57,156,57.9z"/>
	<path class="st1" d="M170.5,59.7c1.7-0.1,3.4,0.3,5.1,1.2c1.4,0.7,2.2,1.6,2.6,2.6c0.4,1,0.3,2-0.3,3.1c-0.3,0.6-0.8,1.1-1.4,1.4
		s-1.3,0.5-2.1,0.5l-0.1,0.1c1,1.1,1.2,2.3,0.5,3.5c-0.5,0.9-1.3,1.5-2.2,1.7c-1,0.2-2.1,0-3.2-0.6c-1.1-0.6-2.1-1.4-3.2-2.6
		l2.3-2.3c0.4,0.6,0.9,1.1,1.6,1.4c0.3,0.2,0.6,0.2,0.8,0.1c0.3-0.1,0.4-0.2,0.6-0.5c0.4-0.7,0-1.4-1.1-2l-1-0.5l1.6-2l1.1,0.6
		c0.4,0.2,0.8,0.3,1.1,0.2c0.3-0.1,0.5-0.3,0.7-0.6c0.2-0.3,0.2-0.6,0.1-0.9c-0.1-0.3-0.3-0.6-0.7-0.8c-0.4-0.2-0.9-0.4-1.4-0.4
		s-0.8-0.1-1.1,0l-0.4,0.1L170.5,59.7z"/>
	<path class="st1" d="M176.4,72c0.8-1.1,1.7-1.6,2.8-1.8s2.2,0.2,3.3,1c0.7,0.5,1.2,1,1.5,1.5c0.2-0.3,0.4-0.6,0.5-0.9
		c0.1-0.5-0.2-1.1-1-1.6c-0.6-0.5-1.5-0.8-2.6-1l1.3-3.4c0.4,0,1,0.2,1.8,0.5s1.4,0.7,2,1c0.4,0.3,0.7,0.6,1,0.8
		c0.3,0.2,0.5,0.5,0.7,0.8c0.2,0.3,0.4,0.7,0.5,1c0.1,0.3,0.2,0.8,0.2,1.2c0,0.5,0,1-0.1,1.6c-0.2,1.1-1.2,2.9-3,5.4
		c-0.9,1.3-1.8,2.4-2.6,3.3l-2.7-2.1c0.5-0.6,1.1-1.3,1.8-2.2c-0.9,0.6-1.7,0.9-2.5,0.9c-0.8,0-1.5-0.2-2.1-0.7
		c-0.9-0.6-1.4-1.4-1.5-2.4S175.7,73,176.4,72z M180,74c-0.1,0.2-0.2,0.4-0.1,0.6c0.1,0.2,0.2,0.4,0.4,0.5c0.5,0.4,1.3,0.4,2.1,0
		c-0.3-0.5-0.6-0.9-1-1.1c-0.3-0.2-0.5-0.3-0.8-0.3S180.1,73.8,180,74z"/>
	<path class="st1" d="M183.9,82.4l9.3-8.9l2.9,2.9l-2,1.9l5.5,0.7l-0.3,3.8l-4-0.7l-1,7.4l-4.2-0.5l1.6-7.7l-0.7-0.2l-4.3,4.1
		L183.9,82.4z"/>
	<path class="st1" d="M195.8,88.6c1-0.8,2.1-1.1,3.2-0.9s2.1,0.8,2.9,1.9c0.5,0.6,0.8,1.3,1,1.9c0.3-0.2,0.6-0.5,0.7-0.7
		c0.3-0.4,0.1-1.1-0.5-1.8c-0.5-0.6-1.2-1.2-2.2-1.7l2.2-2.9c0.4,0.1,0.9,0.5,1.6,1c0.7,0.5,1.2,1.1,1.6,1.6c0.3,0.4,0.5,0.7,0.7,1
		c0.2,0.3,0.3,0.6,0.5,1c0.1,0.4,0.2,0.7,0.2,1.1c0,0.4-0.1,0.8-0.2,1.2c-0.1,0.5-0.3,1-0.6,1.5c-0.5,1-2,2.5-4.4,4.3
		c-1.3,1-2.4,1.8-3.4,2.4l-2-2.8c0.6-0.4,1.4-0.9,2.4-1.6c-1,0.3-1.9,0.4-2.7,0.1c-0.8-0.2-1.4-0.6-1.9-1.2
		c-0.6-0.8-0.9-1.8-0.8-2.8C194.2,90.2,194.8,89.4,195.8,88.6z M198.6,91.5c-0.2,0.1-0.3,0.3-0.3,0.5s0.1,0.4,0.2,0.6
		c0.4,0.5,1.1,0.7,2.1,0.6c-0.1-0.5-0.3-1-0.6-1.4c-0.2-0.3-0.4-0.4-0.7-0.5C199.1,91.3,198.8,91.4,198.6,91.5z"/>
	<path class="st1" d="M209.6,93.9c1.5,0.8,2.8,2,3.8,3.7c0.8,1.3,1.1,2.5,0.9,3.6c-0.2,1-0.8,1.9-1.9,2.5c-0.6,0.3-1.2,0.5-1.9,0.5
		c-0.7,0-1.4-0.2-2-0.7l-0.1,0.1c0.3,1.5-0.2,2.6-1.4,3.3c-0.9,0.5-1.9,0.6-2.8,0.3c-1-0.3-1.8-1.1-2.4-2.2
		c-0.6-1.1-1.1-2.3-1.4-3.8l3.2-0.7c0,0.7,0.2,1.4,0.6,2.1c0.2,0.3,0.4,0.5,0.6,0.5c0.3,0.1,0.5,0,0.7-0.1c0.7-0.4,0.7-1.2,0.1-2.3
		l-0.6-1l2.4-0.9l0.6,1.1c0.2,0.4,0.5,0.7,0.8,0.7c0.3,0.1,0.6,0,0.9-0.2c0.3-0.2,0.5-0.4,0.6-0.7c0.1-0.3,0-0.6-0.2-1.1
		c-0.2-0.4-0.6-0.8-0.9-1.1s-0.7-0.5-1-0.6l-0.4-0.1L209.6,93.9z"/>
</g>
<g>
	<circle class="st2" cx="129.3" cy="146.4" r="102.3"/>
	<path class="st1" d="M37.5,164.8l3.8-0.8c0.4,1.6,0.9,3.4,1.4,5.4c0.1,0.5,0.4,1.4,0.7,2.6c0.3,1.2,0.6,2.3,0.8,3.2l-3.9,0.5
		l-0.9-3.4l-8.8,2l-1.1-4.1c1.4-0.3,4.3-0.9,8.8-1.9L37.5,164.8z"/>
	<path class="st1" d="M37,178.4c0.8-0.3,1.6-0.5,2.5-0.6c0.9-0.1,1.7-0.1,2.5,0c0.8,0.1,1.6,0.4,2.3,0.7s1.4,0.8,2,1.4
		s1,1.3,1.4,2.1c0.5,1.1,0.5,2.1,0.2,3c-0.3,0.9-1,1.5-2.1,1.9c-1.1,0.4-2.3,0.6-3.7,0.6l-3.2-5.3c-0.5,0.2-0.8,0.4-0.9,0.6
		c-0.3,0.3-0.3,0.7-0.1,1.2c0.4,0.9,1,1.8,2,2.7l-2.4,2.3c-0.4-0.2-0.9-0.8-1.6-1.6c-0.7-0.8-1.2-1.7-1.6-2.5
		c-0.2-0.5-0.3-1-0.4-1.4c-0.1-0.5-0.1-1,0-1.5c0.1-0.5,0.2-1,0.4-1.4c0.2-0.4,0.6-0.9,1-1.3S36.4,178.6,37,178.4z M42.1,181.3
		l1.5,2.2c0.2,0,0.5,0,0.7-0.1c0.1-0.1,0.2-0.1,0.3-0.3c0.1-0.1,0-0.3,0-0.5C44.2,181.9,43.4,181.4,42.1,181.3z"/>
	<path class="st1" d="M37.8,192.8l12.3-4.1l2,3.2l-1.7,2.5c-0.1,0.2-0.4,0.5-0.7,0.9c-0.3,0.4-0.5,0.7-0.7,1l-0.3,0.4l0.1,0.1
		c1.4-0.2,2.4-0.3,3.1-0.4l3-0.3l1.9,3.2l-10.2,7.9l-2.5-3.3l4.1-2.9c0.4-0.3,0.8-0.5,1.3-0.8c0.5-0.3,0.9-0.5,1.2-0.7l0.5-0.3
		l-0.1-0.1c-1.5,0.3-2.6,0.5-3.5,0.6l-2.3,0.3l-1.2-2l1.1-1.6c0.2-0.3,0.4-0.7,0.8-1.2c0.4-0.5,0.7-0.9,1-1.3l0.4-0.6l-0.1-0.1
		c-2,1-3.3,1.6-3.9,1.8l-4.2,1.6L37.8,192.8z"/>
	<path class="st1" d="M50,217.3l5.2-4.8c0.6,0.6,1.2,1,1.9,1.1s1.4,0.1,2.1-0.2c2.5-1,4.7-2.3,6.4-3.9l5.7,5.4l-6.3,6.4l1.7,1.7
		l-5.7,4.7l-2.9-2.8l2.6-2.5l-4.8-4.6l-2.9,2.5L50,217.3z M60.1,216.6l1.9,1.9l3.9-3.6l-0.7-0.6l-2.7,1.7
		C61.7,216.5,60.9,216.7,60.1,216.6z"/>
	<path class="st1" d="M69.1,223.3c0.5-0.7,1.1-1.3,1.7-1.9c0.7-0.6,1.4-1,2.1-1.3c0.8-0.3,1.5-0.6,2.3-0.7c0.8-0.1,1.6-0.1,2.4,0.1
		s1.6,0.5,2.3,1c1,0.7,1.6,1.5,1.8,2.4c0.2,0.9,0,1.8-0.7,2.8c-0.7,1-1.6,1.8-2.8,2.5l-5.5-2.7c-0.3,0.4-0.4,0.7-0.5,1
		c-0.1,0.4,0.1,0.7,0.6,1.1c0.8,0.5,1.8,0.9,3.2,1.2l-0.8,3.3c-0.4,0-1.2-0.1-2.2-0.4c-1-0.3-1.9-0.7-2.7-1.2
		c-0.4-0.3-0.8-0.6-1.1-1c-0.3-0.4-0.6-0.8-0.8-1.2c-0.2-0.5-0.4-0.9-0.4-1.4c-0.1-0.5,0-1,0.2-1.6
		C68.4,224.5,68.6,223.9,69.1,223.3z M74.9,223l2.4,1c0.2-0.1,0.4-0.3,0.6-0.5c0.1-0.1,0.1-0.3,0.1-0.4c0-0.1-0.1-0.3-0.3-0.4
		C77,222.3,76.1,222.4,74.9,223z"/>
	<path class="st1" d="M83.9,224.1l3.9,1.8l-3.7,8.2l2.2,1l4-8.1l3.9,1.8l-4.1,7.9l2.2,1l4.3-7.9l3.9,1.8L94.4,243l-8.8-4
		c-0.9-0.4-2.1-0.9-3.5-1.6c-1.5-0.6-2.6-1.1-3.3-1.5L83.9,224.1z"/>
	<path class="st1" d="M100.4,239.7c0.2-0.8,0.5-1.6,0.9-2.4s0.9-1.4,1.5-2s1.2-1.1,1.9-1.5c0.7-0.4,1.5-0.6,2.3-0.7
		c0.8-0.1,1.7-0.1,2.5,0.1c1.2,0.3,2.1,0.8,2.6,1.6s0.6,1.7,0.3,2.8c-0.3,1.1-0.9,2.2-1.7,3.3l-6.1-0.6c-0.1,0.5-0.2,0.8-0.1,1.1
		c0.1,0.4,0.4,0.6,1,0.8c0.9,0.2,2,0.2,3.4,0l0.5,3.3c-0.4,0.2-1.1,0.3-2.2,0.4c-1.1,0.1-2.1,0-3-0.2c-0.5-0.1-1-0.3-1.4-0.5
		c-0.4-0.2-0.8-0.5-1.2-0.8c-0.4-0.4-0.7-0.7-0.9-1.2c-0.2-0.4-0.4-1-0.4-1.6C100.2,241.1,100.2,240.4,100.4,239.7z M105.8,237.4
		l2.6,0.1c0.2-0.2,0.3-0.4,0.4-0.7c0-0.1,0-0.3,0-0.4c-0.1-0.1-0.2-0.2-0.4-0.3C107.5,236,106.7,236.4,105.8,237.4z"/>
	<path class="st1" d="M114.6,235.2c1.6,0,3.2,0,4.7,0.2c2,0.2,3.4,0.6,4.1,1.2c0.7,0.6,1,1.5,0.9,2.7c-0.1,0.8-0.4,1.5-0.9,2.1
		c-0.5,0.6-1.1,1-2,1.2l0,0.1c1.1,0.5,1.5,1.4,1.4,2.5c-0.1,1-0.7,1.8-1.7,2.4c-1,0.6-2.4,0.8-4.1,0.6c-1.2-0.1-2.2-0.3-3.1-0.6
		L114.6,235.2z M117.9,243l-0.2,2.1l0.7,0.1c0.3,0,0.5-0.1,0.7-0.3s0.3-0.5,0.3-0.8c0.1-0.6-0.2-1-0.7-1L117.9,243z M118.3,238.4
		l-0.2,2.2l0.8,0.1c0.4,0,0.7,0,0.9-0.2c0.2-0.2,0.3-0.5,0.4-0.8c0-0.3,0-0.5-0.2-0.7c-0.1-0.2-0.4-0.3-0.7-0.3L118.3,238.4z"/>
	<path class="st1" d="M125.1,245.7c1-0.2,1.6-0.5,2.1-0.7c0.4-0.3,0.8-0.7,1.1-1.3c0.3-0.7,0.6-1.6,0.7-2.6c0.1-1.1,0.3-2.7,0.4-4.9
		l7.7-0.2l0.7,12.6l-4.2,0.3l0-9.3l-0.9,0c0,0.1,0,0.4-0.1,1c0,0.5-0.1,0.9-0.1,1.1c0,0.2-0.1,0.5-0.1,1s-0.1,0.8-0.2,1.1
		c-0.1,0.2-0.1,0.6-0.2,0.9s-0.2,0.7-0.3,1s-0.2,0.6-0.4,0.9c-0.4,0.9-1,1.6-1.7,2.1s-1.5,0.8-2.4,0.8c-0.7,0-1.2,0-1.4,0
		L125.1,245.7z"/>
	<path class="st1" d="M140.9,243.4c-0.1-0.8-0.2-1.7-0.1-2.5c0.1-0.9,0.3-1.7,0.6-2.4s0.7-1.5,1.2-2.1c0.5-0.6,1.1-1.2,1.8-1.6
		c0.7-0.4,1.5-0.7,2.3-0.9c1.2-0.2,2.2-0.1,3,0.4c0.8,0.5,1.2,1.3,1.5,2.4c0.2,1.1,0.1,2.4-0.2,3.7l-5.8,2c0.1,0.5,0.2,0.8,0.3,1
		c0.2,0.3,0.6,0.4,1.2,0.3c0.9-0.2,1.9-0.6,3.1-1.4l1.8,2.9c-0.3,0.3-0.9,0.7-1.9,1.2s-1.9,0.9-2.8,1c-0.5,0.1-1,0.1-1.5,0.1
		c-0.5,0-1-0.1-1.4-0.3c-0.5-0.2-0.9-0.4-1.3-0.7c-0.4-0.3-0.7-0.7-1-1.3C141.2,244.7,141,244.1,140.9,243.4z M144.8,239.1l2.5-1
		c0.1-0.2,0.1-0.5,0.1-0.7c0-0.2-0.1-0.3-0.2-0.4c-0.1-0.1-0.3-0.1-0.5-0.1C145.8,237.1,145.2,237.8,144.8,239.1z"/>
	<path class="st1" d="M162.3,247.6l-2.3-6.7c0.8-0.3,1.4-0.8,1.8-1.3c0.4-0.5,0.6-1.2,0.7-2.1c0.1-2.7-0.2-5.2-1-7.5l7.2-3l3.3,8.4
		l2.2-0.9l2,7.1l-3.8,1.5l-1.2-3.4l-6.2,2.6l1.1,3.7L162.3,247.6z M165.7,238l2.5-1l-1.8-5l-0.9,0.4l0.5,3.1
		C166.2,236.5,166.1,237.4,165.7,238z"/>
	<path class="st1" d="M175.6,232.8c-0.4-0.7-0.8-1.4-1-2.2c-0.3-0.8-0.4-1.6-0.5-2.4s0-1.6,0.2-2.4c0.2-0.8,0.5-1.5,1-2.2
		c0.5-0.7,1.1-1.2,1.8-1.7c0.7-0.5,1.4-0.7,2.1-0.8c0.7-0.1,1.3,0,1.8,0.2c0.6,0.2,1.1,0.6,1.5,1c0.4,0.4,0.9,0.9,1.2,1.6
		c0.5,0.8,0.9,1.7,1.1,2.6c0.2,0.9,0.3,1.9,0.3,2.9c-0.1,1-0.3,1.9-0.8,2.8c-0.5,0.9-1.2,1.6-2.1,2.2c-1.3,0.8-2.5,1-3.7,0.7
		C177.3,234.7,176.4,234,175.6,232.8z M179,230.5c0.4,0.7,0.9,0.8,1.5,0.5c0.5-0.3,0.7-1,0.7-2.2s-0.4-2.2-1-3.1
		c-0.2-0.3-0.4-0.5-0.6-0.5c-0.2-0.1-0.5,0-0.7,0.1c-0.4,0.2-0.6,0.7-0.7,1.3c-0.1,0.6-0.1,1.3,0.1,2
		C178.4,229.3,178.7,230,179,230.5z"/>
	<path class="st1" d="M187.4,224.8c-0.7-0.8-1.2-1.7-1.6-2.6c-0.4-0.9-0.6-1.8-0.6-2.5c0-0.8,0-1.5,0.2-2.3c0.2-0.7,0.4-1.4,0.7-1.9
		c0.3-0.5,0.7-1,1.1-1.3c0.7-0.6,1.5-1,2.1-1.3c0.7-0.2,1.4-0.4,2.2-0.5l0.7,4.1c-0.6,0-1.1,0.1-1.4,0.1c-0.3,0.1-0.7,0.3-0.9,0.5
		c-0.6,0.5-0.8,1.1-0.7,1.9c0.1,0.8,0.4,1.6,1,2.3c0.8,1,1.7,1.2,2.6,0.4c0.6-0.5,1.1-1.3,1.6-2.6l3,2c-0.2,0.5-0.5,1.2-1,2.1
		c-0.5,0.8-1.1,1.5-1.8,2.2c-0.5,0.4-1.1,0.8-1.7,1c-0.6,0.2-1.2,0.4-1.8,0.4c-0.6,0-1.3-0.1-1.9-0.5
		C188.6,226,188,225.5,187.4,224.8z"/>
	<path class="st1" d="M194.5,213.6l-2.7-2.8c1.1-1.2,2.4-2.5,3.8-4.1c0.4-0.4,1-1.1,1.8-2c0.9-0.9,1.6-1.8,2.2-2.4l2.6,2.9l-2.4,2.6
		l6.5,6.2l-2.8,3.1c-1-1-3.1-3.1-6.4-6.3L194.5,213.6z"/>
	<path class="st1" d="M207.2,206.9c-1.1-0.7-1.7-1.7-1.8-2.8c-0.2-1.1,0.1-2.2,0.9-3.3c0.5-0.7,1-1.2,1.5-1.5
		c-0.3-0.2-0.6-0.4-0.9-0.4c-0.5-0.1-1,0.2-1.6,1c-0.4,0.6-0.7,1.5-0.9,2.6l-3.5-1.2c0-0.4,0.2-1,0.5-1.8c0.3-0.8,0.6-1.5,1-2
		c0.3-0.4,0.5-0.8,0.8-1c0.2-0.3,0.5-0.5,0.8-0.8c0.3-0.2,0.6-0.4,1-0.5s0.8-0.2,1.2-0.2c0.5,0,1,0,1.6,0.1c1.1,0.2,3,1.1,5.5,2.9
		c1.3,0.9,2.4,1.7,3.4,2.5l-2,2.8c-0.6-0.5-1.3-1.1-2.3-1.8c0.6,0.9,0.9,1.7,1,2.5s-0.2,1.5-0.6,2.2c-0.6,0.9-1.4,1.4-2.4,1.6
		C209.2,207.9,208.2,207.6,207.2,206.9z M209.1,203.3c0.2,0.1,0.4,0.2,0.6,0.1c0.2-0.1,0.4-0.2,0.5-0.4c0.4-0.6,0.4-1.3-0.1-2.1
		c-0.5,0.3-0.8,0.6-1.1,1c-0.2,0.3-0.3,0.5-0.3,0.8C208.8,203,208.9,203.2,209.1,203.3z"/>
	<path class="st1" d="M207.2,191.3c0.5-1.5,1.1-3,1.8-4.3c0.9-1.8,1.8-2.9,2.6-3.4c0.8-0.5,1.8-0.4,2.8,0.1c0.7,0.4,1.3,0.9,1.7,1.6
		c0.4,0.7,0.5,1.4,0.5,2.3l0.1,0.1c0.9-0.8,1.8-1,2.8-0.4c0.9,0.5,1.5,1.3,1.7,2.5c0.2,1.2-0.1,2.5-0.9,4c-0.6,1.1-1.1,2-1.7,2.6
		L207.2,191.3z M211.5,189l1.9,0.9l0.4-0.7c0.2-0.3,0.2-0.6,0.1-0.9c-0.1-0.3-0.3-0.5-0.6-0.7c-0.3-0.1-0.5-0.2-0.7-0.1
		c-0.2,0.1-0.4,0.2-0.5,0.5L211.5,189z M215.6,191.1l1.9,0.9l0.3-0.7c0.1-0.3,0.1-0.5,0-0.8c-0.1-0.3-0.4-0.5-0.7-0.6
		c-0.6-0.3-1-0.2-1.2,0.3L215.6,191.1z"/>
	<path class="st1" d="M224.2,185.4l-12-4.6l1.4-3.9l2.6,1l-1.7-5.3l3.5-1.4l1.1,3.9l7.2-2.2l1.3,4l-7.7,1.8l0.1,0.7l5.6,2.1
		L224.2,185.4z"/>
	<path class="st1" d="M224.9,170.7c-1.3-0.2-2.2-0.9-2.8-1.8c-0.6-1-0.8-2.1-0.5-3.4c0.2-0.8,0.4-1.5,0.7-2c-0.4-0.1-0.7-0.1-1,0
		c-0.5,0.1-0.9,0.6-1.1,1.6c-0.1,0.8-0.1,1.7,0.2,2.8l-3.7,0.3c-0.1-0.4-0.2-1-0.3-1.8s0-1.6,0.1-2.2c0.1-0.5,0.2-0.9,0.3-1.2
		c0.1-0.3,0.3-0.7,0.4-1c0.2-0.3,0.4-0.6,0.7-0.9c0.3-0.2,0.6-0.5,1.1-0.7s0.9-0.4,1.5-0.5c1.1-0.3,3.2-0.1,6.2,0.5
		c1.5,0.3,2.9,0.6,4.1,1l-0.7,3.3c-0.7-0.2-1.7-0.5-2.8-0.7c0.9,0.5,1.5,1.2,1.9,1.9c0.4,0.7,0.5,1.5,0.3,2.2
		c-0.2,1-0.7,1.8-1.6,2.4C227.1,170.7,226.1,170.9,224.9,170.7z M225.2,166.6c0.2,0,0.4,0,0.6-0.1c0.2-0.1,0.3-0.3,0.3-0.6
		c0.1-0.7-0.2-1.3-0.9-1.9c-0.3,0.4-0.5,0.9-0.6,1.4c-0.1,0.3,0,0.6,0.1,0.8C224.8,166.4,225,166.6,225.2,166.6z"/>
</g>
<polygon class="st1" points="30.8,131.3 33.2,134.5 37.3,134.4 34.9,137.7 36.3,141.5 32.4,140.3 29.3,142.8 29.2,138.8 25.8,136.5 
	29.7,135.2 "/>
<polygon class="st1" points="227.7,131.3 228.9,135.2 232.8,136.4 229.5,138.7 229.6,142.8 226.3,140.4 222.4,141.7 223.8,137.8 
	221.3,134.6 225.4,134.6 "/>
<path class="st1" d="M101.5,158l2.7-5.1c0.1,0,0.2,0.1,0.3,0.2s0.4,0.2,0.8,0.4c0.4,0.2,0.8,0.4,1.2,0.5c0.4,0.1,1,0.3,1.7,0.4
	c0.7,0.1,1.3,0.2,2,0.2c1.2,0,2.2-0.3,2.9-0.8s1.1-1.3,1.1-2.2c0-0.9-0.3-1.6-1-2c-0.7-0.5-1.7-0.7-2.9-0.7c-1.1,0-2.1,0.1-3.1,0.3
	c-1,0.2-1.7,0.4-2.1,0.6l-0.7,0.3l-1.3-1.9l1.6-14.6h15l-0.7,5.9h-9.2l-0.3,3.8c0.8-0.1,1.8-0.2,3-0.2c1.1,0,2.2,0.1,3.1,0.4
	c1,0.3,1.8,0.7,2.6,1.4c0.8,0.6,1.3,1.4,1.7,2.4c0.4,1,0.6,2.2,0.6,3.5c0,1.6-0.3,3-0.8,4.2c-0.5,1.2-1.2,2.2-2.1,3
	c-0.9,0.8-2,1.4-3.2,1.8c-1.2,0.4-2.6,0.6-4.1,0.6c-0.9,0-1.9-0.1-2.8-0.3c-0.9-0.2-1.7-0.4-2.4-0.6c-0.7-0.2-1.3-0.5-1.8-0.7
	c-0.5-0.2-1-0.5-1.2-0.6L101.5,158z"/>
<path class="st1" d="M146,148.9c0-1.7,0.1-3.3,0.4-4.8c0.3-1.5,0.8-3,1.4-4.3c0.6-1.3,1.4-2.5,2.3-3.5c0.9-1,2-1.8,3.3-2.3
	c1.3-0.6,2.7-0.9,4.3-0.9c1.4,0,2.7,0.2,3.8,0.7c1.1,0.4,2,1,2.7,1.8c0.7,0.7,1.2,1.6,1.7,2.6c0.4,1,0.7,2.1,0.9,3.1
	c0.2,1,0.2,2.1,0.2,3.3c0,1.5-0.2,3-0.5,4.5c-0.3,1.5-0.8,2.9-1.4,4.3c-0.6,1.4-1.4,2.6-2.3,3.6c-0.9,1-2,1.9-3.3,2.5
	c-1.3,0.6-2.8,0.9-4.3,0.9c-2.9,0-5.1-1-6.7-3C146.8,155.4,146,152.6,146,148.9z M152.4,148.9c0,1.9,0.2,3.3,0.7,4.1
	c0.5,0.8,1.2,1.3,2.2,1.3c1.1,0,2-0.5,2.8-1.4s1.4-2.1,1.8-3.5c0.4-1.4,0.6-3,0.6-4.8c0-1.6-0.3-3-0.8-4c-0.5-1-1.2-1.5-2.1-1.5
	c-0.9,0-1.8,0.3-2.5,0.9c-0.7,0.6-1.3,1.3-1.7,2.3c-0.4,1-0.7,2-0.9,3.1C152.5,146.6,152.4,147.7,152.4,148.9z"/>
</svg>
