<!-- Generator: Adobe Illustrator 18.1.1, SVG Export Plug-In  -->
<svg version="1.1"
	 xmlns="http://www.w3.org/2000/svg" xmlns:xlink="http://www.w3.org/1999/xlink" xmlns:a="http://ns.adobe.com/AdobeSVGViewerExtensions/3.0/"
	 x="0px" y="0px" width="73.58px" height="62.722px" viewBox="0 0 73.58 62.722" enable-background="new 0 0 73.58 62.722"
	 xml:space="preserve">
<defs>
</defs>
<g>
	<path fill="#450D04" d="M1.321,40.102c0.181-0.137,0.74-0.457,1.675-0.96c0.936-0.503,1.657-0.845,2.166-1.024
		c1.03-0.365,1.855-0.447,2.475-0.246c0.62,0.202,1.068,0.692,1.345,1.472c0.165,0.465,0.196,0.935,0.095,1.411
		c-0.1,0.478-0.344,0.939-0.729,1.387l0.022,0.065c0.816,0.096,1.371,0.56,1.666,1.392c0.324,0.916,0.279,1.76-0.137,2.532
		c-0.416,0.773-1.143,1.344-2.178,1.71c-0.717,0.255-1.32,0.431-1.81,0.525l-3.018-6.894l-0.61,0.35L1.321,40.102z M4.824,40.456
		l0.852,1.967c0.359-0.171,0.663-0.355,0.913-0.553c0.237-0.197,0.396-0.416,0.479-0.657c0.08-0.24,0.077-0.486-0.011-0.735
		c-0.097-0.271-0.255-0.448-0.476-0.53c-0.22-0.082-0.488-0.067-0.806,0.045C5.484,40.096,5.167,40.251,4.824,40.456z M6.443,44.236
		l0.66,1.614c0.008-0.003,0.041-0.013,0.097-0.027c0.057-0.015,0.101-0.028,0.136-0.04c0.278-0.099,0.49-0.262,0.636-0.488
		c0.145-0.227,0.159-0.501,0.044-0.825c-0.077-0.219-0.199-0.377-0.365-0.473c-0.166-0.097-0.374-0.101-0.621-0.013
		C6.842,44.051,6.646,44.135,6.443,44.236z"/>
	<path fill="#450D04" d="M11.136,43.97c-0.145-0.407-0.233-0.827-0.268-1.262s-0.009-0.856,0.075-1.266
		c0.085-0.411,0.221-0.796,0.406-1.153c0.187-0.359,0.438-0.677,0.756-0.956c0.317-0.278,0.681-0.489,1.089-0.635
		c0.592-0.209,1.099-0.226,1.521-0.048s0.731,0.545,0.929,1.101c0.198,0.558,0.267,1.178,0.206,1.861L13.1,43.091
		c0.083,0.233,0.169,0.393,0.258,0.478c0.129,0.145,0.338,0.165,0.625,0.063c0.443-0.157,0.92-0.47,1.429-0.937l1.128,1.277
		c-0.122,0.177-0.4,0.435-0.834,0.773c-0.432,0.339-0.868,0.587-1.307,0.742c-0.248,0.088-0.493,0.148-0.733,0.18
		c-0.241,0.031-0.489,0.024-0.744-0.018c-0.255-0.043-0.49-0.126-0.705-0.249c-0.215-0.124-0.418-0.306-0.608-0.549
		C11.415,44.609,11.258,44.315,11.136,43.97z M12.751,41.485l1.144-0.69c0.025-0.12,0.015-0.246-0.031-0.376
		c-0.025-0.073-0.07-0.125-0.133-0.156c-0.062-0.031-0.142-0.03-0.237,0.004C13.08,40.413,12.833,40.819,12.751,41.485z"/>
	<path fill="#450D04" d="M19.479,48.364l-0.091-0.357c-0.06-0.239-0.126-0.494-0.194-0.766c-0.07-0.271-0.114-0.443-0.135-0.515
		c-0.386-1.407-0.878-2.95-1.474-4.63c-0.476-1.342-1.026-2.697-1.654-4.068l1.903-0.946c0.073,0.15,0.145,0.324,0.215,0.522
		c0.162,0.459,0.303,0.937,0.42,1.435l0.053-0.019c0.068-1.337,0.518-2.152,1.343-2.445c0.391-0.138,0.78-0.131,1.169,0.021
		c0.389,0.152,0.729,0.405,1.021,0.757c0.292,0.353,0.521,0.762,0.688,1.229c0.188,0.532,0.284,1.054,0.285,1.563
		c0.002,0.51-0.072,0.955-0.223,1.335c-0.151,0.38-0.352,0.706-0.6,0.979c-0.249,0.271-0.525,0.462-0.83,0.569
		c-0.223,0.079-0.44,0.115-0.655,0.11c-0.214-0.005-0.374-0.027-0.477-0.07l-0.154-0.063c0.708,2.179,1.177,3.74,1.405,4.688
		L19.479,48.364z M19.674,41.194c0.006,0.003,0.057,0.03,0.153,0.081c0.097,0.052,0.199,0.087,0.306,0.105s0.217,0.008,0.33-0.032
		c0.282-0.101,0.449-0.359,0.502-0.778s0.004-0.839-0.146-1.262c-0.087-0.244-0.188-0.423-0.302-0.538
		c-0.113-0.114-0.229-0.149-0.347-0.108c-0.144,0.051-0.259,0.231-0.343,0.541c-0.086,0.311-0.141,0.644-0.16,0.999
		C19.646,40.558,19.649,40.889,19.674,41.194z"/>
	<path fill="#450D04" d="M24.86,41.72l-2.169-6.117l1.989-0.705l0.605,1.79l1.696-0.602l-0.497-1.784l1.982-0.718l1.763,6.218
		l-2.002,0.754L27.5,37.943L25.929,38.5l0.865,2.564L24.86,41.72z"/>
	<path fill="#450D04" d="M32.081,42.331c0.505-1.378,0.851-2.734,1.039-4.068c-0.76-0.68-1.437-1.353-2.029-2.019
		c-0.594-0.665-1.241-1.477-1.942-2.432l1.838-1.525c0.38,0.727,0.802,1.438,1.264,2.133s0.89,1.262,1.285,1.699l0.052-0.019
		c0.067-1.037-0.123-2.519-0.57-4.445l2.118-0.34c0.142,1.115,0.227,2.077,0.257,2.886c0.03,0.81-0.018,1.792-0.141,2.946
		c-0.072,0.667-0.187,1.468-0.342,2.401c-0.156,0.934-0.292,1.696-0.407,2.288c-0.116,0.592-0.188,0.937-0.217,1.034L32.081,42.331z
		"/>
	<path fill="#450D04" d="M36.296,32.871l-0.548-1.898c0.768-0.262,1.655-0.571,2.659-0.928c0.261-0.093,0.693-0.248,1.298-0.468
		c0.605-0.22,1.126-0.406,1.561-0.561l0.439,1.922l-1.696,0.602l1.396,4.329l-2.016,0.715c-0.209-0.71-0.654-2.154-1.338-4.335
		L36.296,32.871z"/>
	<path fill="#450D04" d="M44.109,34.925c-0.574-1.682-1.264-3.751-2.07-6.212l2.012-0.742l0.56,1.845
		c0.128-0.192,0.308-0.376,0.538-0.552c0.229-0.175,0.477-0.31,0.738-0.402c0.455-0.161,0.863-0.159,1.225,0.009
		c0.361,0.166,0.635,0.512,0.82,1.035c0.441,1.245,0.165,2.389-0.828,3.435c-0.467,0.484-1.248,0.932-2.343,1.339
		c-0.039,0.014-0.146,0.055-0.323,0.122C44.262,34.868,44.152,34.909,44.109,34.925z M45.476,32.546
		c0.048-0.018,0.115-0.056,0.203-0.116c0.089-0.061,0.149-0.112,0.184-0.153c0.136-0.15,0.242-0.327,0.319-0.527
		c0.078-0.202,0.082-0.396,0.016-0.582c-0.043-0.122-0.112-0.201-0.206-0.235c-0.095-0.034-0.185-0.038-0.267-0.009
		c-0.263,0.094-0.465,0.261-0.604,0.501L45.476,32.546z"/>
	<path fill="#450D04" d="M48.834,30.546c-0.182-0.51-0.278-1.012-0.293-1.505s0.039-0.93,0.162-1.31
		c0.122-0.379,0.287-0.728,0.496-1.044c0.209-0.317,0.438-0.576,0.686-0.773c0.249-0.199,0.501-0.344,0.757-0.435
		c0.461-0.164,0.872-0.24,1.233-0.229c0.36,0.011,0.732,0.064,1.115,0.162l-0.401,2.078c-0.28-0.1-0.51-0.156-0.688-0.173
		c-0.181-0.015-0.358,0.009-0.537,0.072c-0.343,0.122-0.565,0.389-0.667,0.801c-0.101,0.413-0.073,0.84,0.083,1.279
		c0.225,0.635,0.613,0.854,1.165,0.658c0.357-0.127,0.757-0.442,1.199-0.946l1.079,1.446c-0.169,0.229-0.439,0.498-0.815,0.808
		c-0.375,0.311-0.79,0.546-1.247,0.708c-0.327,0.115-0.646,0.178-0.96,0.187c-0.312,0.009-0.62-0.038-0.924-0.14
		c-0.303-0.103-0.58-0.292-0.833-0.57C49.191,31.342,48.988,30.983,48.834,30.546z"/>
	<path fill="#450D04" d="M54.805,30.229l0.865-2.487c-0.722-0.111-1.2-0.497-1.435-1.158c-0.157-0.443-0.153-0.869,0.012-1.278
		c0.166-0.408,0.431-0.758,0.798-1.05c0.364-0.291,0.806-0.528,1.324-0.712c0.687-0.244,1.419-0.449,2.196-0.617
		c0.526,1.762,1.156,3.834,1.888,6.217l-2.006,0.697l-0.649-2.472c-0.122,0.082-0.242,0.145-0.36,0.187l-0.639,3.023L54.805,30.229z
		 M56.191,25.949c0.066,0.187,0.17,0.309,0.312,0.363s0.291,0.055,0.447-0.001c0.091-0.032,0.179-0.075,0.263-0.13
		c0.084-0.054,0.143-0.1,0.179-0.137l0.06-0.059l-0.308-1.035c-0.146,0.031-0.313,0.081-0.506,0.149
		c-0.191,0.068-0.331,0.175-0.421,0.322C56.127,25.569,56.119,25.745,56.191,25.949z"/>
</g>
<g>
	<path fill="#450D04" d="M20.976,58.058l-2.169-6.118l1.989-0.705l0.605,1.79l1.696-0.602l-0.497-1.784l1.983-0.718l1.762,6.219
		l-2.002,0.753l-0.728-2.612l-1.572,0.558l0.866,2.563L20.976,58.058z"/>
	<path fill="#450D04" d="M26.935,53.847c-0.221-0.62-0.198-1.182,0.065-1.686c0.263-0.503,0.712-0.866,1.343-1.09
		c0.386-0.137,0.741-0.202,1.064-0.194c-0.067-0.191-0.15-0.344-0.249-0.455c-0.171-0.208-0.488-0.23-0.952-0.066
		c-0.367,0.13-0.752,0.396-1.155,0.799l-1.071-1.514c0.126-0.157,0.369-0.355,0.729-0.593c0.359-0.238,0.694-0.411,1.003-0.521
		c0.239-0.085,0.445-0.148,0.619-0.19c0.172-0.042,0.359-0.065,0.562-0.07c0.2-0.004,0.39,0.021,0.565,0.076
		c0.175,0.056,0.366,0.148,0.571,0.279s0.414,0.303,0.627,0.516c0.411,0.415,0.874,1.35,1.389,2.802
		c0.267,0.752,0.479,1.427,0.638,2.027L31.044,54.5c-0.094-0.371-0.226-0.84-0.396-1.405c-0.002,0.532-0.117,0.969-0.346,1.311
		s-0.525,0.577-0.891,0.706c-0.503,0.179-0.99,0.159-1.46-0.061C27.481,54.832,27.142,54.431,26.935,53.847z M28.79,52.929
		c0.039,0.108,0.107,0.183,0.205,0.219c0.1,0.037,0.215,0.031,0.349-0.016c0.321-0.114,0.523-0.414,0.61-0.9
		c-0.271-0.025-0.528,0.005-0.767,0.089c-0.155,0.056-0.271,0.139-0.349,0.25C28.761,52.682,28.745,52.802,28.79,52.929z"/>
	<path fill="#450D04" d="M35.428,50.261c-0.181-0.51-0.278-1.013-0.292-1.506c-0.015-0.493,0.039-0.929,0.161-1.309
		s0.288-0.728,0.497-1.045s0.438-0.575,0.686-0.773s0.5-0.344,0.756-0.435c0.461-0.163,0.873-0.239,1.234-0.229
		c0.359,0.012,0.732,0.065,1.113,0.163l-0.4,2.077c-0.279-0.099-0.51-0.155-0.689-0.172c-0.179-0.016-0.357,0.009-0.535,0.072
		c-0.344,0.121-0.566,0.388-0.668,0.801c-0.1,0.412-0.073,0.839,0.083,1.279c0.225,0.634,0.613,0.854,1.166,0.657
		c0.356-0.126,0.756-0.441,1.199-0.945l1.078,1.445c-0.169,0.229-0.44,0.499-0.815,0.809s-0.789,0.545-1.247,0.707
		c-0.327,0.116-0.646,0.179-0.96,0.188c-0.312,0.009-0.62-0.039-0.924-0.14c-0.303-0.103-0.58-0.293-0.832-0.571
		S35.583,50.698,35.428,50.261z"/>
	<path fill="#450D04" d="M41.23,48.777c-0.22-0.62-0.198-1.182,0.065-1.685s0.711-0.867,1.343-1.091
		c0.386-0.137,0.741-0.201,1.064-0.194c-0.067-0.191-0.15-0.343-0.249-0.455c-0.171-0.208-0.488-0.23-0.952-0.066
		c-0.367,0.131-0.753,0.396-1.155,0.799l-1.072-1.514c0.127-0.157,0.369-0.355,0.729-0.592c0.36-0.238,0.695-0.412,1.004-0.521
		c0.239-0.085,0.445-0.147,0.619-0.19c0.172-0.042,0.359-0.065,0.562-0.069c0.2-0.005,0.39,0.021,0.565,0.076
		s0.367,0.148,0.571,0.279c0.206,0.131,0.414,0.302,0.626,0.515c0.412,0.416,0.875,1.35,1.39,2.803
		c0.267,0.751,0.479,1.427,0.638,2.026l-1.639,0.534c-0.093-0.372-0.225-0.84-0.395-1.405c-0.003,0.531-0.118,0.969-0.348,1.311
		c-0.228,0.341-0.524,0.576-0.891,0.706c-0.502,0.178-0.988,0.158-1.459-0.062C41.776,49.763,41.438,49.361,41.23,48.777z
		 M43.086,47.86c0.038,0.108,0.107,0.182,0.205,0.219c0.099,0.036,0.216,0.03,0.349-0.017c0.321-0.114,0.523-0.413,0.61-0.899
		c-0.272-0.025-0.528,0.004-0.767,0.089c-0.155,0.055-0.271,0.138-0.35,0.25C43.057,47.613,43.041,47.733,43.086,47.86z"/>
	<path fill="#450D04" d="M45.808,40.069l1.154-1.4c0.246,0.212,0.465,0.358,0.658,0.441c0.193,0.084,0.38,0.093,0.562,0.028
		c0.359-0.127,0.594-0.533,0.703-1.218l1.715,0.508c-0.427,1.184-1.059,1.925-1.896,2.222c-0.475,0.168-0.944,0.217-1.41,0.147
		C46.826,40.728,46.331,40.486,45.808,40.069z M45.843,42.281l2.436,6.17l1.094-0.146l1.033-3.09
		c0.036-0.121,0.079-0.277,0.127-0.471c0.05-0.194,0.09-0.36,0.119-0.498l0.047-0.199l0.062-0.009
		c0.031,0.111,0.068,0.253,0.114,0.423s0.114,0.418,0.204,0.742c0.091,0.325,0.154,0.533,0.191,0.623l0.521,1.349l1.929-0.713
		l-2.362-5.938l-1.21,0.274l-0.728,2.27c-0.061,0.198-0.136,0.463-0.223,0.795c-0.088,0.332-0.161,0.614-0.221,0.846l-0.081,0.352
		l-0.058,0.006c-0.242-0.977-0.427-1.662-0.557-2.057l-0.477-1.469L45.843,42.281z"/>
	<path fill="#450D04" d="M53.118,41.867l-0.548-1.898c0.769-0.262,1.655-0.571,2.659-0.928c0.261-0.092,0.693-0.248,1.299-0.468
		c0.604-0.219,1.125-0.406,1.56-0.561l0.44,1.923l-1.697,0.602l1.396,4.328l-2.016,0.715c-0.209-0.709-0.655-2.154-1.34-4.335
		L53.118,41.867z"/>
</g>
<g>
	<g>
		<path fill="#450D04" d="M44.711,6.904c0,0,0.168-0.027,0.484-0.077c0.321-0.047,0.75-0.139,1.434-0.185
			c0.672-0.076,1.44-0.095,2.317-0.109c0.876,0.011,1.863,0.051,2.932,0.15c1.07,0.094,2.221,0.253,3.43,0.484
			c1.209,0.231,2.47,0.553,3.764,0.95c1.283,0.432,2.609,0.908,3.905,1.562c1.311,0.612,2.584,1.418,3.805,2.333
			c0.591,0.497,1.198,0.971,1.729,1.563l0.409,0.426c0.081,0.09,0.107,0.099,0.233,0.257l0.163,0.194
			c0.222,0.273,0.421,0.48,0.669,0.83c0.964,1.278,1.693,2.554,2.268,3.942c0.577,1.369,0.911,2.782,1.113,4.12
			c0.212,1.343,0.243,2.619,0.195,3.778c-0.048,1.16-0.178,2.208-0.327,3.12c-0.139,0.919-0.325,1.694-0.473,2.335
			c-0.148,0.642-0.307,1.124-0.396,1.464c-0.096,0.337-0.146,0.516-0.146,0.516l-5.661-2.077c0,0,0.059-0.143,0.168-0.411
			c0.103-0.269,0.287-0.661,0.466-1.166c0.179-0.505,0.406-1.119,0.598-1.828c0.211-0.708,0.382-1.515,0.507-2.391
			c0.123-0.876,0.195-1.825,0.135-2.81c-0.046-0.987-0.21-2.016-0.541-3.038c-0.314-1.008-0.827-2.085-1.403-3.003
			c-0.114-0.216-0.353-0.523-0.536-0.79l-0.146-0.207c0.025,0.021-0.073-0.086-0.103-0.123l-0.277-0.324
			c-0.343-0.452-0.796-0.842-1.219-1.255c-0.913-0.773-1.904-1.509-2.993-2.1c-1.063-0.628-2.202-1.119-3.313-1.575
			c-1.126-0.424-2.24-0.787-3.318-1.064c-1.077-0.277-2.111-0.488-3.071-0.633c-0.961-0.152-1.846-0.209-2.629-0.259
			c-0.784-0.02-1.464-0.031-1.981,0.005c-0.509,0.002-1.004,0.079-1.316,0.112c-0.317,0.037-0.487,0.057-0.487,0.057L44.711,6.904z"
			/>
	</g>
	<g>
		<polygon fill="#450D04" points="55.663,4.574 43.092,8.708 43.094,7.411 53.054,11.197 54.251,11.652 53.16,14.116 52.018,13.536 
			42.52,8.707 41.305,8.089 42.523,7.41 54.08,0.964 55.809,0 57.544,3.956 		"/>
	</g>
</g>
</svg>